<?xml version="1.0" encoding="UTF-8"?>
<svg xmlns="http://www.w3.org/2000/svg" xmlns:xlink="http://www.w3.org/1999/xlink" id="Layer_2" data-name="Layer 2" viewBox="0 0 96.76 111.61">
  <defs>
    <style>      .cls-1 {        fill: url(#linear-gradient);      }      .cls-1, .cls-2, .cls-3, .cls-4 {        stroke-width: 0px;      }      .cls-2 {        fill: #0053fc;      }      .cls-3 {        fill: #5eebfc;      }      .cls-4 {        fill: #119ef4;      }    </style>
    <linearGradient id="linear-gradient" x1="0" y1="55.8" x2="96.76" y2="55.8" gradientUnits="userSpaceOnUse">
      <stop offset="0" stop-color="#210da0"></stop>
      <stop offset="1" stop-color="#0157ea"></stop>
    </linearGradient>
  </defs>
  <g id="Layer_1-2" data-name="Layer 1">
    <g>
      <polygon class="cls-1" points="48.38 0 0 27.65 0 83.45 48.38 111.61 96.76 83.45 96.76 27.65 48.38 0"></polygon>
      <g>
        <path class="cls-2" d="M43.39,49.07l-34.03,19.45c-2.7,1.54-2.69,5.44.01,6.98l34.05,19.28c3.07,1.74,6.84,1.74,9.91,0l34.05-19.28c2.71-1.53,2.72-5.43.01-6.98l-34.03-19.45c-3.09-1.77-6.89-1.77-9.98,0Z"></path>
        <path class="cls-4" d="M43.39,33.78L9.36,53.23c-2.7,1.54-2.69,5.44.01,6.98l34.05,19.28c3.07,1.74,6.84,1.74,9.91,0l34.05-19.28c2.71-1.53,2.72-5.43.01-6.98l-34.03-19.45c-3.09-1.77-6.89-1.77-9.98,0Z"></path>
        <path class="cls-3" d="M43.39,17.59L9.36,37.03c-2.7,1.54-2.69,5.44.01,6.98l34.05,19.28c3.07,1.74,6.84,1.74,9.91,0l34.05-19.28c2.71-1.53,2.72-5.43.01-6.98l-34.03-19.45c-3.09-1.77-6.89-1.77-9.98,0Z"></path>
      </g>
    </g>
  </g>
</svg>
